<?xml version="1.0" encoding="utf-8"?>
<svg version="1.1" id="Layer_1" xmlns="http://www.w3.org/2000/svg" x="0px" y="0px" width="100%" viewBox="0 0 300 300" enable-background="new 0 0 300 300">
  <circle cx="84.587" cy="123.5" r="23.168" style="fill: rgb(255, 254, 254);" transform="matrix(6.506248, 0, 0, 6.501437, -399.767242, -652.389526)"/>
  <path fill="#3B5D9B" opacity="1.000000" stroke="none" d="M 75.243 170.574 C 74.505 171.471 68.87 169.759 68.27 167.607 C 68.109 167.03 68.119 164.865 68.134 164.121 C 68.566 136.779 68.283 115.962 68.363 89.085 C 83.153 80.142 97.941 71.194 112.734 62.257 C 117.781 59.206 122.946 56.347 127.857 53.08 C 130.656 51.218 132.815 51.464 135.577 53.191 C 150.393 62.456 165.296 71.574 180.23 80.637 C 183.936 82.886 187.753 85.035 191.729 86.689 C 195.954 88.449 195.769 91.794 196.028 95.538 C 196.296 99.423 195.039 101.746 191.639 103.095 C 190.273 103.637 188.978 104.374 187.763 104.967 C 187.303 104.556 186.847 104.301 186.876 104.151 C 188.42 96.12 183.498 92.846 177.655 89.523 C 163.172 81.287 148.996 72.474 134.546 64.173 C 132.98 63.274 130.027 63.473 128.396 64.419 C 111.353 74.297 94.448 84.431 76.798 94.777 C 75.876 96.904 75.478 98.749 75.475 100.594 C 75.432 123.204 75.631 140.04 75.471 162.648 C 75.459 164.38 75.625 168.709 75.243 170.574 Z" style=""/>
  <path fill="#3B5D9A" opacity="1.000000" stroke="none" d="M 260.079 215.274 C 242.223 225.337 224.103 234.991 206.639 245.659 C 199.427 250.065 194.128 250.178 187.094 245.597 C 177.184 239.144 166.455 233.873 155.983 228.046 C 161.998 222.663 164.601 222.262 171.003 225.787 C 178.394 229.854 185.818 233.877 193.043 238.208 C 195.847 239.888 197.905 239.808 200.724 238.208 C 217.408 228.729 234.213 219.456 251.681 209.846 C 252.58 208.809 252.349 206.785 252.35 206.016 C 252.383 187.526 252.987 170.291 252.926 151.801 C 252.923 150.782 252.27 149.762 251.918 148.742 C 246.38 145.574 240.839 142.406 235.34 139.261 C 235.507 138.718 235.5 138.318 235.696 138.162 C 243.857 131.652 240.507 131.71 249.704 136.864 C 253.431 138.952 257.114 141.115 260.566 143.876 C 260.236 168.096 260.157 191.684 260.079 215.274 Z" style=""/>
  <path fill="#3D5E9A" opacity="1.000000" stroke="none" d="M 168.725 192.3 C 168.813 198.293 169.077 204.293 168.863 210.274 C 168.81 211.749 167.529 213.745 166.26 214.516 C 147.201 226.102 128.091 237.596 108.85 248.848 C 107.134 249.85 103.948 249.899 102.249 248.906 C 82.297 237.231 62.498 225.272 42.044 213.019 C 44.858 210.227 47.512 207.591 49.775 205.343 C 53.05 207.92 55.818 210.616 59.021 212.526 C 73.135 220.948 87.339 229.21 101.617 237.325 C 103.342 238.306 106.264 239.046 107.713 238.201 C 125.089 228.056 142.623 217.543 160.42 206.634 C 160.607 201.618 160.302 197.393 160.594 192.518 C 163.304 192.518 166.452 192.3 168.725 192.3 Z" style=""/>
  <path fill="#3C5D9A" opacity="1.000000" stroke="none" d="M 152.784 140.381 C 150.646 137.868 149.07 134.005 147.175 130.971 C 163.023 121.28 173.825 115.613 189.698 106.171 C 193.206 104.084 196.116 103.994 199.683 106.247 C 207.371 111.1 215.333 115.504 223.815 120.462 C 220.745 123.073 218.16 125.27 215.393 127.625 C 209.597 124.256 204.064 120.675 198.185 117.828 C 196.169 116.851 192.794 116.81 190.879 117.882 C 176.53 125.92 167.314 131.911 152.784 140.381 Z" style="transform-box: fill-box; transform-origin: 50% 50%;" transform="matrix(0.999822, -0.018875, 0.018875, 0.999822, 0, 0)"/>
  <path fill="#3C5E9A" opacity="1.000000" stroke="none" d="M 54.989 142.997 C 49.804 144.851 49.894 147.421 50.058 151.369 C 50.368 158.836 51.172 166.572 50.977 174.009 C 50.764 182.154 46.231 186.444 40.903 192.637 C 40.903 186.207 40.904 180.987 40.903 175.767 C 40.903 165.462 41.072 155.153 40.808 144.855 C 40.719 141.369 41.891 139.435 44.871 137.874 C 50.402 134.978 55.771 131.773 61.172 128.716 C 64.52 133.118 63.826 138.013 59.685 140.418 C 58.249 141.251 56.779 142.025 54.989 142.997 Z"/>
  <path fill="#284376" opacity="1.000000" stroke="none" d=" M260.441040,214.079559 C260.158569,190.123093 260.237488,165.891174 260.595032,141.356522 C260.849915,165.303894 260.826202,189.554016 260.441040,214.079559 z"/>
  <path fill="#DFB14A" opacity="1.000000" stroke="none" d="M 77.088 171.088 C 80.881 173.455 84.604 175.945 88.51 178.107 C 89.589 178.704 91.257 178.58 92.573 178.341 C 96.24 177.675 99.888 176.863 103.496 175.927 C 104.955 175.548 106.794 175.076 107.604 174.001 C 112.894 166.983 117.99 159.817 123.034 152.617 C 123.714 151.646 124.126 150.185 124.018 149.009 C 122.476 132.16 132.878 124.461 148.8 131.449 C 151.336 133.526 152.762 135.771 153.961 138.891 C 154.436 142.096 154.317 145.622 153.945 148.865 C 153.364 153.928 159.164 161.171 164.165 161.405 C 165.808 161.482 169.825 162.035 171.729 163.041 C 176.189 165.398 177.03 163.428 180.845 160.251 C 203.436 141.434 226.218 122.845 249.184 103.976 C 247.949 102.076 246.823 100.343 245.283 97.971 C 251.128 98.738 256.311 99.418 262.167 100.186 C 261.814 105.526 261.469 110.753 261.124 115.98 C 260.801 116.171 260.478 116.362 260.155 116.553 C 259.081 114.93 258.007 113.308 256.681 111.304 C 248.999 117.825 241.949 123.825 234.881 129.804 C 217.745 144.302 200.557 158.74 183.525 173.359 C 181.824 174.819 180.465 177.217 179.95 179.414 C 178.54 185.428 174.485 189.947 168.135 192.456 C 164.513 193.228 162.531 193.044 159.729 192.332 C 149.743 187.304 147.198 181.942 149.79 171.393 C 151.072 166.176 145.126 160.669 140.094 159.532 C 132.339 157.78 129.874 162.698 126.601 167.41 C 124.894 169.868 122.972 172.176 121.207 174.596 C 118.012 178.977 114.783 182.522 116.558 189.411 C 118.839 198.265 111.53 206.248 103.05 206.782 C 93.625 207.375 86.766 201.298 85.887 191.952 C 85.729 190.273 84.386 188.57 83.238 187.166 C 82.44 186.192 81.042 185.704 79.905 185.011 C 69.492 178.664 69.53 178.703 60.786 187.545 C 53.881 194.527 46.91 201.447 39.859 208.282 C 38.456 209.642 36.557 210.49 34.886 211.573 C 34.511 211.141 34.136 210.709 33.761 210.277 C 44.99 195.862 56.22 181.447 68.028 166.945 C 70.249 167.6 71.891 168.343 73.769 169.362 C 75.032 170.122 76.06 170.605 77.088 171.088 M 105.193 198.934 C 108.772 196.697 111.275 193.348 109.567 189.394 C 108.438 186.779 105.4 184.348 102.65 183.239 C 99.281 181.88 95.733 183.783 94.45 187.126 C 93.501 189.6 93.26 193.133 94.338 195.424 C 96.201 199.384 100.038 200.796 105.193 198.934 M 166.898 169.158 C 165.912 169.085 164.915 168.887 163.939 168.96 C 158.745 169.351 155.686 172.788 156.012 177.777 C 156.332 182.671 159.36 185.179 164.649 185.237 C 168.999 185.285 171.489 183.066 172.482 179.102 C 173.609 174.604 171.71 171.422 166.898 169.158 M 133.747 150.717 C 134.328 151.03 134.896 151.371 135.492 151.653 C 139.275 153.44 143.334 152.875 145.149 149.553 C 146.65 146.807 146.852 142.546 145.918 139.476 C 144.752 135.641 140.575 135.482 137.013 136.065 C 130.828 137.077 129.02 143.913 133.747 150.717 Z"/>
</svg>